<?xml version="1.0" encoding="utf-8"?>
<!-- Generator: Adobe Illustrator 16.0.0, SVG Export Plug-In . SVG Version: 6.00 Build 0)  -->
<!DOCTYPE svg PUBLIC "-//W3C//DTD SVG 1.1//EN" "http://www.w3.org/Graphics/SVG/1.1/DTD/svg11.dtd">
<svg version="1.1" id="Capa_1" xmlns="http://www.w3.org/2000/svg" xmlns:xlink="http://www.w3.org/1999/xlink" x="0px" y="0px"
	 width="30px" height="16px" viewBox="0 0 30 16" enable-background="new 0 0 30 16" xml:space="preserve">
<path fill="#FFFFFF" d="M30,2.077C30,3.164,29.118,4,28.032,4H8.059C6.972,4,6,3.164,6,2.077V2.029C6,0.942,6.972,0,8.059,0h19.973
	C29.118,0,30,0.942,30,2.029V2.077z"/>
<path fill="#FFFFFF" d="M30,8.055C30,9.142,29.118,10,28.032,10H8.059C6.972,10,6,9.142,6,8.055V8.006C6,6.919,6.972,6,8.059,6
	h19.973C29.118,6,30,6.919,30,8.006V8.055z"/>
<path fill="#FFFFFF" d="M30,14.031C30,15.118,29.118,16,28.032,16H8.059C6.972,16,6,15.118,6,14.031v-0.048
	C6,12.896,6.972,12,8.059,12h19.973C29.118,12,30,12.896,30,13.983V14.031z"/>
<circle fill="#FFFFFF" cx="2" cy="2" r="2"/>
<circle fill="#FFFFFF" cx="2" cy="8" r="2"/>
<circle fill="#FFFFFF" cx="2" cy="14" r="2"/>
</svg>
