<?xml version="1.0" encoding="utf-8"?>
<!-- Generator: Adobe Illustrator 16.0.0, SVG Export Plug-In . SVG Version: 6.00 Build 0)  -->
<!DOCTYPE svg PUBLIC "-//W3C//DTD SVG 1.1//EN" "http://www.w3.org/Graphics/SVG/1.1/DTD/svg11.dtd">
<svg version="1.1" id="Capa_1" xmlns="http://www.w3.org/2000/svg" xmlns:xlink="http://www.w3.org/1999/xlink" x="0px" y="0px"
	 width="42.188px" height="22.5px" viewBox="0 0 42.188 22.5" enable-background="new 0 0 42.188 22.5" xml:space="preserve">
<path fill="#911930" d="M42,2.916C42,4.443,40.887,6,39.362,6H11.316C9.79,6,8,4.443,8,2.916V2.85C8,1.323,9.79,0,11.316,0h28.046
	C40.887,0,42,1.323,42,2.85V2.916z"/>
<path fill="#911930" d="M42,11.31c0,1.526-1.113,2.69-2.638,2.69H11.316C9.79,14,8,12.836,8,11.31v-0.068C8,9.715,9.79,8,11.316,8
	h28.046C40.887,8,42,9.715,42,11.242V11.31z"/>
<path fill="#911930" d="M42,19.702C42,21.229,40.887,22,39.362,22H11.316C9.79,22,8,21.229,8,19.702v-0.067
	C8,18.108,9.79,17,11.316,17h28.046C40.887,17,42,18.108,42,19.635V19.702z"/>
<circle fill="#911930" cx="2.808" cy="2.808" r="2.808"/>
<circle fill="#911930" cx="2.808" cy="11.233" r="2.808"/>
<circle fill="#911930" cx="2.808" cy="19.658" r="2.808"/>
</svg>
