<?xml version="1.0" encoding="utf-8"?>
<!-- Generator: Adobe Illustrator 16.0.0, SVG Export Plug-In . SVG Version: 6.00 Build 0)  -->
<!DOCTYPE svg PUBLIC "-//W3C//DTD SVG 1.1//EN" "http://www.w3.org/Graphics/SVG/1.1/DTD/svg11.dtd">
<svg version="1.1" id="Capa_1" xmlns="http://www.w3.org/2000/svg" xmlns:xlink="http://www.w3.org/1999/xlink" x="0px" y="0px"
	 width="75px" height="75px" viewBox="0 0 75 75" enable-background="new 0 0 75 75" xml:space="preserve">
<g>
	<path fill-rule="evenodd" clip-rule="evenodd" fill="#FFFFFF" d="M37.301,0C16.696,0,0,16.849,0,37.633
		C0,56.909,14.367,72.79,32.883,74.998c0-3.87,0.006-7.736-0.004-11.602c0-0.635,0.129-1.221,0.328-1.821
		c1.339-4.168,2.26-8.409,1.895-12.834c-0.104-1.242-0.382-2.461-1.032-3.548c-0.143-0.244-0.313-0.452-0.609-0.56
		c-2.935-1.069-5.069-3.134-6.684-5.729c-4.202-6.783-4.352-13.907-1.367-21.146c1.361-3.287,3.647-5.898,6.992-7.323
		c3.996-1.699,7.906-1.4,11.565,0.956c3.423,2.206,5.306,5.553,6.36,9.413c1.285,4.733,1.252,9.458-0.442,14.075
		c-1.446,3.947-3.781,7.227-7.546,9.286c-0.135,0.072-0.266,0.178-0.41,0.204c-1.358,0.237-1.744,1.328-2.035,2.44
		c-0.682,2.612-0.466,5.248-0.107,7.877c0.345,2.556,1.017,5.028,1.823,7.467c0.114,0.35,0.156,0.701,0.156,1.067
		c-0.007,3.921-0.007,7.846-0.007,11.771C60.254,72.769,74.6,56.895,74.6,37.633C74.6,16.849,57.901,0,37.301,0z"/>
	<path fill-rule="evenodd" clip-rule="evenodd" fill="#FFFFFF" d="M29.034,19.559c-0.742,0.998-1.111,2.148-1.445,3.305
		c-0.782,2.655-1.201,5.366-0.795,8.139c0.392,2.688,1.681,4.989,3.239,7.135c0.857,1.18,1.729,2.384,2.993,3.188
		c0.264,0.029,0.304-0.09,0.191-0.302c-0.155-0.319-0.313-0.646-0.475-0.974c-0.162-0.262-0.299-0.531-0.424-0.812
		c-0.235-0.54-0.475-1.086-0.703-1.634c-0.97-2.397-2.142-4.712-2.406-7.343c-0.336-3.353-0.116-6.694-0.035-10.039
		C29.179,20.009,29.293,19.767,29.034,19.559z"/>
</g>
</svg>
