<?xml version="1.0" encoding="utf-8"?>
<!-- Generator: Adobe Illustrator 16.0.0, SVG Export Plug-In . SVG Version: 6.00 Build 0)  -->
<!DOCTYPE svg PUBLIC "-//W3C//DTD SVG 1.1//EN" "http://www.w3.org/Graphics/SVG/1.1/DTD/svg11.dtd">
<svg version="1.1" id="Capa_1" xmlns="http://www.w3.org/2000/svg" xmlns:xlink="http://www.w3.org/1999/xlink" x="0px" y="0px"
	 width="75px" height="75px" viewBox="0 0 75 75" enable-background="new 0 0 75 75" xml:space="preserve">
<path fill-rule="evenodd" clip-rule="evenodd" fill="#FFFFFF" d="M37.713,0C16.882,0,0.001,16.885,0.001,37.715
	c0,19.819,15.294,36.058,34.722,37.583c0.1-0.526,0.238-1.041,0.421-1.562c0.682-1.937,0.89-3.971,0.456-5.993
	c-0.533-2.524-2.178-4.128-4.581-4.954c-0.621-0.212-0.812-0.508-0.798-1.164c0.117-5.591,0.177-11.178,0.625-16.757
	c0.557-6.905,1.401-13.762,3.123-20.482c1.006-3.926,2.281-7.768,4.383-11.284c0.647-1.092,1.408-2.099,2.294-3.03
	c0.498-0.518,1.072-0.573,1.71-0.534c0.54,0.037,0.327,0.458,0.329,0.714c0.021,3.794,0.03,7.587,0.03,11.388
	c0,11.578,0,23.154,0,34.731h0.039c0,6.231,0,12.471,0,18.705c18.439-2.467,32.663-18.25,32.663-37.361
	C75.417,16.885,58.534,0,37.713,0z"/>
</svg>
