<?xml version="1.0" encoding="utf-8"?>
<!-- Generator: Adobe Illustrator 16.0.0, SVG Export Plug-In . SVG Version: 6.00 Build 0)  -->
<!DOCTYPE svg PUBLIC "-//W3C//DTD SVG 1.1//EN" "http://www.w3.org/Graphics/SVG/1.1/DTD/svg11.dtd">
<svg version="1.1" id="Capa_1" xmlns="http://www.w3.org/2000/svg" xmlns:xlink="http://www.w3.org/1999/xlink" x="0px" y="0px"
	 width="32px" height="32px" viewBox="0 0 32 32" enable-background="new 0 0 32 32" xml:space="preserve">
<path fill="#FFFFFF" d="M32.012,16.007c0,8.839-7.167,16.005-16.006,16.005C7.167,32.012,0,24.846,0,16.007
	C0,7.167,7.167,0,16.006,0C24.845,0,32.012,7.167,32.012,16.007z M11.212,15.553h2.159v11.446h3.893V15.553h2.911v-3.007h-2.911
	v-1.023c0-0.734,0.123-1.231,0.368-1.49c0.244-0.258,0.648-0.387,1.211-0.387c0.572,0,1.169,0.074,1.789,0.218l0.527-2.667
	c-1.063-0.328-2.148-0.491-3.259-0.491c-1.081,0-1.971,0.189-2.679,0.565c-0.708,0.375-1.191,0.863-1.456,1.461
	c-0.261,0.601-0.395,1.507-0.395,2.724v1.089h-2.159V15.553z"/>
</svg>
