<?xml version="1.0" encoding="utf-8"?>
<!-- Generator: Adobe Illustrator 16.0.0, SVG Export Plug-In . SVG Version: 6.00 Build 0)  -->
<!DOCTYPE svg PUBLIC "-//W3C//DTD SVG 1.1//EN" "http://www.w3.org/Graphics/SVG/1.1/DTD/svg11.dtd">
<svg version="1.1" id="Capa_1" xmlns="http://www.w3.org/2000/svg" xmlns:xlink="http://www.w3.org/1999/xlink" x="0px" y="0px"
	 width="32px" height="32px" viewBox="0 0 32 32" enable-background="new 0 0 32 32" xml:space="preserve">
<path fill="#BD3A49" d="M32.084,16.044c0,8.862-7.182,16.044-16.042,16.044S0,24.906,0,16.044C0,7.184,7.182,0,16.042,0
	S32.084,7.184,32.084,16.044z M10.542,12.353c-2.131,0-3.855,1.726-3.855,3.855c0,2.129,1.724,3.855,3.855,3.855
	c2.129,0,3.855-1.726,3.855-3.855C14.397,14.079,12.671,12.353,10.542,12.353z M21.146,12.188c-2.13,0-3.855,1.727-3.855,3.856
	c0,2.13,1.726,3.857,3.855,3.857c2.129,0,3.854-1.727,3.854-3.857C25.001,13.915,23.275,12.188,21.146,12.188z"/>
</svg>
