<?xml version="1.0" encoding="utf-8"?>
<!-- Generator: Adobe Illustrator 16.0.0, SVG Export Plug-In . SVG Version: 6.00 Build 0)  -->
<!DOCTYPE svg PUBLIC "-//W3C//DTD SVG 1.1//EN" "http://www.w3.org/Graphics/SVG/1.1/DTD/svg11.dtd">
<svg version="1.1" id="Capa_1" xmlns="http://www.w3.org/2000/svg" xmlns:xlink="http://www.w3.org/1999/xlink" x="0px" y="0px"
	 width="32px" height="32px" viewBox="0 0 32 32" enable-background="new 0 0 32 32" xml:space="preserve">
<path fill="#BD3A49" d="M31.925,15.964c0,8.817-7.146,15.964-15.961,15.964C7.148,31.928,0,24.781,0,15.964
	C0,7.148,7.148,0,15.964,0C24.779,0,31.925,7.148,31.925,15.964z M25.357,9.457c0-1.512-1.228-2.739-2.738-2.739H9.188
	c-1.511,0-2.739,1.227-2.739,2.739v13.476c0,1.514,1.228,2.74,2.739,2.74h13.432c1.511,0,2.738-1.227,2.738-2.74V9.457z
	 M15.553,12.337c-2.51,0-4.544,2.034-4.544,4.544c0,2.508,2.035,4.543,4.544,4.543c2.512,0,4.542-2.035,4.542-4.543
	C20.095,14.371,18.064,12.337,15.553,12.337z M22.481,10.327c0-0.606-0.489-1.096-1.098-1.096h-1.186
	c-0.605,0-1.098,0.49-1.098,1.096v1.095c0,0.605,0.492,1.096,1.098,1.096h1.186c0.608,0,1.098-0.491,1.098-1.096V10.327z"/>
</svg>
