<?xml version="1.0" encoding="utf-8"?>
<!-- Generator: Adobe Illustrator 16.0.0, SVG Export Plug-In . SVG Version: 6.00 Build 0)  -->
<!DOCTYPE svg PUBLIC "-//W3C//DTD SVG 1.1//EN" "http://www.w3.org/Graphics/SVG/1.1/DTD/svg11.dtd">
<svg version="1.1" id="Capa_1" xmlns="http://www.w3.org/2000/svg" xmlns:xlink="http://www.w3.org/1999/xlink" x="0px" y="0px"
	 width="295px" height="36.042px" viewBox="0 0 295 36.042" enable-background="new 0 0 295 36.042" xml:space="preserve">
<path fill-rule="evenodd" clip-rule="evenodd" fill="#BE3A4A" d="M121.293,0.087c-9.902,0-17.925,8.024-17.925,17.923
	c0,9.421,7.269,17.139,16.501,17.864c0.049-0.249,0.115-0.495,0.202-0.741c0.325-0.923,0.422-1.888,0.216-2.85
	c-0.254-1.198-1.034-1.962-2.176-2.354c-0.298-0.102-0.388-0.242-0.38-0.554c0.055-2.656,0.082-5.313,0.296-7.965
	c0.266-3.282,0.666-6.541,1.485-9.733c0.479-1.867,1.083-3.693,2.082-5.364c0.31-0.519,0.672-0.997,1.092-1.439
	c0.237-0.248,0.508-0.272,0.811-0.255c0.257,0.019,0.157,0.218,0.157,0.339c0.009,1.803,0.014,3.607,0.014,5.413
	c0,5.503,0,11.004,0,16.506h0.019c0,2.965,0,5.928,0,8.892c8.765-1.172,15.525-8.674,15.525-17.759
	C139.212,8.112,131.188,0.087,121.293,0.087z"/>
<g>
	<path fill-rule="evenodd" clip-rule="evenodd" fill="#A22A2E" d="M276.766,0.146c-9.906,0-17.936,8.028-17.936,17.932
		c0,9.186,6.906,16.752,15.812,17.807c0-1.844,0.001-3.688-0.003-5.53c0-0.304,0.062-0.58,0.157-0.868
		c0.645-1.985,1.088-4.005,0.912-6.114c-0.05-0.593-0.186-1.174-0.497-1.691c-0.068-0.115-0.15-0.215-0.292-0.267
		c-1.411-0.51-2.438-1.492-3.215-2.73c-2.021-3.232-2.093-6.627-0.657-10.076c0.655-1.566,1.752-2.81,3.361-3.488
		c1.92-0.811,3.802-0.669,5.56,0.453c1.647,1.054,2.552,2.648,3.06,4.486c0.618,2.257,0.604,4.508-0.212,6.708
		c-0.695,1.878-1.82,3.443-3.63,4.424c-0.063,0.034-0.127,0.086-0.197,0.097c-0.652,0.112-0.837,0.633-0.979,1.163
		c-0.326,1.245-0.223,2.5-0.051,3.755c0.167,1.217,0.488,2.396,0.876,3.558c0.055,0.167,0.075,0.332,0.075,0.509
		c-0.004,1.869-0.004,3.739-0.004,5.609c8.895-1.061,15.792-8.626,15.792-17.804C294.698,8.174,286.669,0.146,276.766,0.146z"/>
	<path fill-rule="evenodd" clip-rule="evenodd" fill="#932B28" d="M272.79,9.465c-0.357,0.476-0.534,1.025-0.696,1.575
		c-0.376,1.265-0.578,2.56-0.38,3.879c0.188,1.281,0.808,2.378,1.557,3.401c0.412,0.562,0.83,1.135,1.438,1.52
		c0.127,0.014,0.146-0.044,0.092-0.146c-0.075-0.152-0.15-0.307-0.228-0.463c-0.078-0.124-0.144-0.252-0.204-0.385
		c-0.113-0.259-0.229-0.517-0.337-0.779c-0.467-1.142-1.031-2.246-1.159-3.5c-0.161-1.597-0.057-3.19-0.016-4.783
		C272.86,9.678,272.914,9.565,272.79,9.465z"/>
</g>
<path fill-rule="evenodd" clip-rule="evenodd" fill="#EA8697" d="M50.347,0.09c-9.959,0-18.03,8.071-18.03,18.028
	c0,9.299,7.039,16.952,16.082,17.924c0-2.194,0-4.393,0-6.592c0-0.773,0.308-1.479,0.496-2.21c0.359-1.402,0.501-2.812,0.185-4.237
	c-0.341-1.531-1.108-2.825-2.233-3.919c-1.223-1.187-1.698-2.659-1.491-4.339c0.397-3.247,0.814-6.487,1.201-9.732
	c0.042-0.348,0.149-0.489,0.495-0.424c0.087,0.018,0.176,0.01,0.263,0c0.261-0.037,0.333,0.065,0.324,0.33
	c-0.131,3.828-0.247,7.656-0.378,11.483c-0.012,0.325,0.051,0.464,0.394,0.423c0.223-0.027,0.45-0.022,0.672-0.003
	c0.271,0.028,0.33-0.08,0.33-0.336c-0.009-1.779-0.003-3.56-0.003-5.337c0-2.053,0.006-4.104-0.006-6.156
	c0-0.293,0.049-0.416,0.378-0.403c0.716,0.02,0.722,0,0.722,0.726c0,3.692,0.005,7.386-0.01,11.082c0,0.352,0.101,0.438,0.439,0.429
	c0.759-0.021,0.759-0.006,0.759-0.772c0-3.669,0.004-7.338-0.009-11.006c0-0.348,0.068-0.482,0.441-0.459
	c0.645,0.036,0.557-0.078,0.557,0.552c0.004,3.731,0.004,7.461-0.002,11.195c0,0.298,0.061,0.436,0.383,0.398
	c0.223-0.023,0.454-0.023,0.672,0.007c0.317,0.033,0.365-0.105,0.354-0.386c-0.107-3.719-0.202-7.435-0.305-11.15
	c-0.016-0.612-0.016-0.616,0.606-0.609c0.534,0.007,0.486-0.102,0.557,0.515c0.347,3.023,0.713,6.046,1.062,9.072
	c0.09,0.774,0.232,1.553,0.036,2.337c-0.201,0.801-0.52,1.55-1.081,2.173c-0.826,0.913-1.613,1.849-2.045,3.035
	c-0.607,1.665-0.602,3.367-0.272,5.074c0.249,1.318,0.449,2.629,0.444,3.986c-0.013,1.752-0.017,3.501-0.019,5.253
	c9.032-0.982,16.063-8.63,16.063-17.923C68.375,8.161,60.304,0.09,50.347,0.09z"/>
<g>
	<polygon fill="#111820" points="24.572,29.977 5.091,0.163 0.427,0.163 0.427,35.986 3.902,35.986 3.902,4.357 24.572,35.986 
		28.047,35.986 28.047,0.163 24.572,0.163 	"/>
	<polygon fill="#111820" points="86.158,31.439 73.949,0.087 70.107,0.087 84.373,35.916 87.781,35.916 102.049,0.087 98.322,0.087 
			"/>
	<path fill="#111820" d="M157.307,22.611h19.255c-0.718,2.925-2.485,5.358-5.307,7.295c-2.819,1.935-5.829,2.903-9.031,2.903
		c-3.979,0-7.438-1.419-10.38-4.254c-2.942-2.849-4.414-6.288-4.414-10.313c0-4.146,1.456-7.68,4.366-10.608
		c2.912-2.942,6.403-4.414,10.474-4.414c2.697,0,5.082,0.549,7.157,1.646c2.089,1.083,3.871,2.783,5.35,5.101h4.116
		c-1.355-2.746-3.552-5.078-6.584-7c-3.035-1.92-6.388-2.878-10.062-2.878c-5.062,0-9.375,1.759-12.943,5.28
		c-3.564,3.507-5.351,7.814-5.351,12.92c0,4.695,1.816,8.812,5.442,12.347c3.628,3.537,7.899,5.303,12.807,5.303
		c4.906,0,9.16-1.582,12.759-4.753c3.597-3.171,5.517-7.074,5.763-11.708h-23.417V22.611z"/>
	<path fill="#111820" d="M206.536,21.697c0,4.109-0.813,6.98-2.447,8.616c-1.63,1.635-3.588,2.454-5.874,2.454
		c-2.5,0-4.512-0.926-6.039-2.778c-1.522-1.853-2.284-4.44-2.284-7.76v-1.044V0.179h-3.476V21.28v0.996
		c0,4.617,1.089,8.052,3.271,10.308c2.176,2.238,5.02,3.355,8.527,3.355c3.306,0,6.096-1.102,8.367-3.31
		c2.285-2.209,3.431-5.636,3.431-10.286v-0.785V0.179h-3.477V21.697z"/>
	<path fill="#111820" d="M226.727,15.75c-3.217-0.869-5.335-1.782-6.356-2.742c-1.006-0.978-1.51-2.195-1.51-3.657
		c0-1.679,0.565-3.118,1.693-4.322c1.128-1.206,2.65-1.807,4.571-1.807c1.692,0,3.141,0.632,4.346,1.898
		c1.218,1.249,1.828,2.744,1.828,4.481h3.477c0-2.621-0.908-4.863-2.72-6.723c-1.815-1.859-4.089-2.788-6.814-2.788
		c-2.776,0-5.115,0.86-7.021,2.582c-1.891,1.706-2.835,3.925-2.835,6.654c0,4.42,2.729,7.399,8.185,8.94
		c3.507,0.991,5.795,2.112,6.859,3.361c1.066,1.235,1.603,2.622,1.603,4.161c0,2.197-0.719,3.918-2.15,5.168
		c-1.435,1.234-3.092,1.853-4.986,1.853c-2.178,0-3.915-0.694-5.211-2.083c-1.282-1.399-1.923-3.078-1.923-5.029h-3.473
		c0,3.049,0.996,5.52,2.994,7.407c1.997,1.893,4.534,2.835,7.612,2.835c2.928,0,5.431-0.965,7.501-2.9
		c2.074-1.937,3.109-4.331,3.109-7.181C235.506,20.705,232.58,17.335,226.727,15.75z"/>
	<polygon fill="#111820" points="237.246,3.318 245.294,3.318 245.294,35.916 248.77,35.916 248.77,3.318 256.817,3.318 
		256.817,0.09 237.246,0.09 	"/>
</g>
</svg>
