<?xml version="1.0" encoding="utf-8"?>
<!-- Generator: Adobe Illustrator 16.0.0, SVG Export Plug-In . SVG Version: 6.00 Build 0)  -->
<!DOCTYPE svg PUBLIC "-//W3C//DTD SVG 1.1//EN" "http://www.w3.org/Graphics/SVG/1.1/DTD/svg11.dtd">
<svg version="1.1" id="Capa_1" xmlns="http://www.w3.org/2000/svg" xmlns:xlink="http://www.w3.org/1999/xlink" x="0px" y="0px"
	 width="50px" height="26.846px" viewBox="0 0 50 26.846" enable-background="new 0 0 50 26.846" xml:space="preserve">
<path fill="#FFFFFF" d="M50,3.484C50,5.309,48.855,7,47.034,7H13.522C11.697,7,10,5.309,10,3.484v-0.08C10,1.581,11.697,0,13.522,0
	h33.512C48.855,0,50,1.581,50,3.405V3.484z"/>
<path fill="#FFFFFF" d="M50,13.515C50,15.337,48.855,17,47.034,17H13.522C11.697,17,10,15.337,10,13.515v-0.082
	C10,11.608,11.697,10,13.522,10h33.512C48.855,10,50,11.608,50,13.433V13.515z"/>
<path fill="#FFFFFF" d="M50,23.542C50,25.366,48.855,26,47.034,26H13.522C11.697,26,10,25.366,10,23.542v-0.08
	C10,21.638,11.697,20,13.522,20h33.512C48.855,20,50,21.638,50,23.462V23.542z"/>
<circle fill="#FFFFFF" cx="3.356" cy="3.355" r="3.356"/>
<circle fill="#FFFFFF" cx="3.356" cy="13.423" r="3.356"/>
<circle fill="#FFFFFF" cx="3.356" cy="23.489" r="3.356"/>
</svg>
