<?xml version="1.0" encoding="utf-8"?>
<!-- Generator: Adobe Illustrator 16.0.0, SVG Export Plug-In . SVG Version: 6.00 Build 0)  -->
<!DOCTYPE svg PUBLIC "-//W3C//DTD SVG 1.1//EN" "http://www.w3.org/Graphics/SVG/1.1/DTD/svg11.dtd">
<svg version="1.1" id="Capa_1" xmlns="http://www.w3.org/2000/svg" xmlns:xlink="http://www.w3.org/1999/xlink" x="0px" y="0px"
	 width="75px" height="75px" viewBox="0 0 75 75" enable-background="new 0 0 75 75" xml:space="preserve">
<path fill-rule="evenodd" clip-rule="evenodd" fill="#FFFFFF" d="M37.668,0C16.864,0,0,16.864,0,37.666
	c0,19.431,14.707,35.418,33.596,37.449c0-4.589,0.004-9.18,0-13.771c0-1.615,0.643-3.089,1.036-4.617
	c0.753-2.932,1.052-5.874,0.387-8.854c-0.713-3.196-2.315-5.899-4.667-8.186c-2.555-2.479-3.545-5.557-3.113-9.065
	c0.826-6.783,1.698-13.555,2.51-20.333c0.082-0.727,0.309-1.024,1.031-0.886c0.179,0.034,0.367,0.025,0.546,0
	c0.548-0.077,0.697,0.138,0.681,0.688c-0.274,7.997-0.516,15.996-0.792,23.988c-0.024,0.684,0.109,0.973,0.824,0.888
	c0.467-0.055,0.939-0.045,1.404-0.006c0.566,0.058,0.689-0.171,0.689-0.705c-0.019-3.714-0.006-7.435-0.006-11.148
	c0-4.287,0.011-8.576-0.013-12.86c0-0.616,0.104-0.871,0.79-0.844c1.499,0.043,1.51,0,1.51,1.517c0,7.714,0.009,15.433-0.021,23.155
	c0,0.733,0.211,0.918,0.917,0.896c1.586-0.048,1.586-0.012,1.586-1.611c0-7.668,0.01-15.332-0.02-22.996
	c0-0.729,0.14-1.009,0.92-0.961c1.351,0.077,1.167-0.165,1.167,1.154c0.01,7.792,0.01,15.59-0.008,23.389
	c0,0.623,0.131,0.913,0.802,0.834c0.467-0.052,0.943-0.052,1.403,0.008c0.665,0.07,0.764-0.215,0.742-0.804
	c-0.22-7.769-0.424-15.534-0.641-23.293c-0.031-1.279-0.031-1.289,1.266-1.272c1.12,0.011,1.021-0.215,1.169,1.073
	c0.72,6.315,1.487,12.629,2.217,18.952c0.186,1.621,0.485,3.246,0.075,4.882c-0.423,1.676-1.087,3.241-2.258,4.542
	c-1.727,1.909-3.372,3.86-4.273,6.337c-1.27,3.48-1.256,7.035-0.571,10.603c0.523,2.757,0.941,5.498,0.931,8.328
	c-0.026,3.662-0.034,7.318-0.04,10.978c18.87-2.053,33.562-18.029,33.562-37.447C75.338,16.864,58.473,0,37.668,0z"/>
</svg>
