<?xml version="1.0" encoding="utf-8"?>
<!-- Generator: Adobe Illustrator 16.0.0, SVG Export Plug-In . SVG Version: 6.00 Build 0)  -->
<!DOCTYPE svg PUBLIC "-//W3C//DTD SVG 1.1//EN" "http://www.w3.org/Graphics/SVG/1.1/DTD/svg11.dtd">
<svg version="1.1" id="Capa_1" xmlns="http://www.w3.org/2000/svg" xmlns:xlink="http://www.w3.org/1999/xlink" x="0px" y="0px"
	 width="32px" height="32px" viewBox="0 0 32 32" enable-background="new 0 0 32 32" xml:space="preserve">
<path fill="#BD3A49" d="M32.031,16.016c0,8.845-7.171,16.016-16.018,16.016C7.171,32.031,0,24.86,0,16.016C0,7.171,7.171,0,16.014,0
	C24.86,0,32.031,7.171,32.031,16.016z M7.63,9.236c0,0-1.752,2.87,1.185,5.198c-0.353-0.014-1.042-0.041-1.703-0.463
	c0.003,0.584,0.07,3.036,3.079,3.893c-0.693,0.163-1.211,0.176-1.742,0.068c0,0,0.762,2.572,3.633,2.735
	c-0.612,0.476-2.72,2.028-5.77,1.617c0,0,5.28,3.663,11.526,0.355c1.225-0.684,5.827-3.726,5.675-10.248c0,0,1.563-1.407,1.944-2.04
	c0,0-1.527,0.591-2.229,0.591c0.427-0.333,1.19-0.763,1.698-2.17c-0.609,0.333-1.175,0.701-2.51,0.953c0,0-1.693-1.973-4.361-0.953
	c-2.667,1.021-2.395,4.285-2.313,4.558C15.172,13.305,10.516,12.951,7.63,9.236z"/>
</svg>
